<svg class="inline-block w-4 h-4 sm:w-6 sm:h-6" viewBox="0 0 24 24" fill="none">
    <path d="M12.5627 2.0015C11.9491 1.97303 11.3927 2.35199 11.197 2.93029L9.28812 8.56872H3.37457C2.78299 8.56872 2.25739 8.94548 2.07046 9.50407C1.88353 10.0627 2.07706 10.6782 2.54988 11.0331L7.30228 14.5818L5.58693 20.2355C5.41759 20.7941 5.62212 21.3965 6.09493 21.7404C6.56995 22.0821 7.20992 22.0865 7.68933 21.7535L12.5011 18.4064L17.3106 21.7535C17.7901 22.0865 18.4301 22.0821 18.9051 21.7404C19.3779 21.3965 19.5824 20.7941 19.4131 20.2355L17.6977 14.5818L22.4502 11.0331C22.923 10.6782 23.1164 10.0627 22.9295 9.50407C22.7426 8.94548 22.2171 8.56872 21.6254 8.56872H15.7118L13.8031 2.93029C13.6205 2.3958 13.1279 2.0256 12.5627 2.0015Z" fill="currentColor"></path>
</svg>